# xmcd
#
# Track frame offsets:
#	150
#	16609
#	29515
#	49694
#	64947
#	83545
#	103280
#	120175
#	138877
#	159970
#
# Disc length: 2350 seconds
#
# Revision: 1
# Processed by: cddbd v1.5.2PL0 Copyright (c) Steve Scherf et al.
# Submitted via: audiograbber 1.83.01
#
DISCID=6f092c0a
DTITLE=David Picco - Saturday Night Sunday Morning
DYEAR=2006
DGENRE=Americana
TTITLE0=Beyond Repair
TTITLE1=Didn't Take Too Long
TTITLE2=Left At The Start
TTITLE3=Call Me (If You Wanna Go Out Tonight)
TTITLE4=Always Outta Tune
TTITLE5=Hometown
TTITLE6=Breakdowns
TTITLE7=She Ain't Afraid To Lose
TTITLE8=Might Be Wrong
TTITLE9=Beneath The Trees
EXTD=
EXTT0=
EXTT1=
EXTT2=
EXTT3=
EXTT4=
EXTT5=
EXTT6=
EXTT7=
EXTT8=
EXTT9=
PLAYORDER=
